<svg width="18" height="18" viewBox="0 0 18 18" fill="none" xmlns="http://www.w3.org/2000/svg">
<g id="Icon / CloseOutlined">
<path id="Vector" d="M9.91069 9L14.5249 3.4998C14.6023 3.4084 14.5373 3.26953 14.4177 3.26953H13.015C12.9324 3.26953 12.8533 3.30645 12.7988 3.36973L8.99311 7.90664L5.18745 3.36973C5.13471 3.30645 5.05561 3.26953 4.97123 3.26953H3.5685C3.44897 3.26953 3.38393 3.4084 3.46127 3.4998L8.07553 9L3.46127 14.5002C3.44395 14.5206 3.43283 14.5455 3.42925 14.572C3.42566 14.5985 3.42976 14.6255 3.44105 14.6497C3.45234 14.674 3.47035 14.6945 3.49294 14.7088C3.51553 14.7231 3.54176 14.7306 3.5685 14.7305H4.97123C5.05385 14.7305 5.13295 14.6936 5.18745 14.6303L8.99311 10.0934L12.7988 14.6303C12.8515 14.6936 12.9306 14.7305 13.015 14.7305H14.4177C14.5373 14.7305 14.6023 14.5916 14.5249 14.5002L9.91069 9Z" fill="black" fill-opacity="0.88"/>
</g>
</svg>
