<svg width="16" height="19" viewBox="0 0 16 19" fill="none" xmlns="http://www.w3.org/2000/svg">
<path d="M11.181 12.3682L7.74347 15.8057C7.71155 15.8377 7.67364 15.863 7.63191 15.8803C7.59018 15.8976 7.54544 15.9065 7.50027 15.9065C7.4551 15.9065 7.41037 15.8976 7.36864 15.8803C7.3269 15.863 7.28899 15.8377 7.25707 15.8057L3.81957 12.3682C3.77144 12.3201 3.73866 12.2589 3.72537 12.1921C3.71208 12.1254 3.71889 12.0563 3.74493 11.9934C3.77097 11.9306 3.81507 11.8769 3.87165 11.8391C3.92823 11.8013 3.99474 11.7812 4.06277 11.7813H10.9378C11.0058 11.7812 11.0723 11.8013 11.1289 11.8391C11.1855 11.8769 11.2296 11.9306 11.2556 11.9934C11.2816 12.0563 11.2885 12.1254 11.2752 12.1921C11.2619 12.2589 11.2291 12.3201 11.181 12.3682Z" fill="black" fill-opacity="0.45"/>
<path d="M11.2553 7.00675C11.2293 7.06957 11.1853 7.12327 11.1287 7.16105C11.0722 7.19883 11.0058 7.21901 10.9378 7.21902H4.06277C3.99474 7.21907 3.92823 7.19894 3.87165 7.16117C3.81507 7.12341 3.77097 7.0697 3.74493 7.00685C3.71889 6.94401 3.71208 6.87485 3.72537 6.80813C3.73866 6.74142 3.77144 6.68014 3.81957 6.63207L7.25707 3.19457C7.28899 3.16261 7.3269 3.13725 7.36864 3.11995C7.41037 3.10265 7.4551 3.09375 7.50027 3.09375C7.54544 3.09375 7.59018 3.10265 7.63191 3.11995C7.67364 3.13725 7.71155 3.16261 7.74347 3.19457L11.181 6.63207C11.229 6.68017 11.2617 6.74144 11.275 6.80814C11.2882 6.87483 11.2814 6.94395 11.2553 7.00675Z" fill="black" fill-opacity="0.45"/>
</svg>
